<svg width="256" height="256" viewBox="0 0 256 256" fill="none" xmlns="http://www.w3.org/2000/svg">
<path d="M53.5261 135.25L134.498 42.8296C139.969 36.6125 147.37 33.1225 155.086 33.1225C162.802 33.1225 170.204 36.6125 175.674 42.8296L181.967 50.0196L194.581 35.6067L188.288 28.3838C179.464 18.3234 167.508 12.6733 155.043 12.6733C142.578 12.6733 130.622 18.3234 121.798 28.3838L40.8832 120.837L53.5261 135.25Z" fill="#E9E9E9"/>
<path d="M161.623 73.266L149.009 58.8531L68.008 151.405C62.5363 157.652 55.1167 161.16 47.3812 161.157C39.6458 161.154 32.2283 157.64 26.7605 151.388C21.2926 145.136 18.2223 136.659 18.225 127.82C18.2277 118.982 21.3032 110.506 26.7748 104.259L96.6557 24.413L84.0415 10L14.1607 89.8459C9.71203 94.811 6.16983 100.735 3.73924 107.276C1.30865 113.816 0.0379808 120.843 0.000838518 127.948C-0.0363037 135.054 1.16082 142.097 3.52286 148.67C5.88491 155.243 9.36492 161.215 13.7613 166.241C18.1577 171.266 23.3832 175.245 29.1349 177.947C34.8866 180.649 41.0504 182.02 47.2691 181.98C53.4878 181.941 59.6379 180.492 65.363 177.718C71.0882 174.943 76.2747 170.898 80.6221 165.818L161.623 73.266ZM242.25 89.8459C233.423 79.7935 221.468 74.1489 209.005 74.1489C196.542 74.1489 184.587 79.7935 175.76 89.8459L94.7592 182.397L107.373 196.81L188.374 104.259C192.455 99.6059 197.65 96.4389 203.305 95.1581C208.96 93.8772 214.82 94.5398 220.145 97.0622C225.47 99.5846 230.022 103.854 233.225 109.33C236.428 114.807 238.139 121.245 238.141 127.832C238.156 132.22 237.401 136.567 235.92 140.616C234.44 144.664 232.264 148.333 229.521 151.405L159.727 231.251L172.369 245.663L242.25 165.818C251.055 155.736 256 142.075 256 127.832C256 113.589 251.055 99.9278 242.25 89.8459V89.8459Z" fill="#E9E9E9"/>
<path d="M202.885 120.413L121.884 212.931C116.406 219.17 108.987 222.674 101.253 222.674C93.5185 222.674 86.0996 219.17 80.622 212.931L74.3293 205.708L61.7151 220.121L68.0078 227.344C76.8352 237.397 88.79 243.041 101.253 243.041C113.716 243.041 125.671 237.397 134.498 227.344L215.499 134.76L202.885 120.413Z" fill="#E9E9E9"/>
</svg>
