<svg width="37" height="30" viewBox="0 0 37 30" fill="none" xmlns="http://www.w3.org/2000/svg">
<path d="M23.0674 8.02917L21.2627 6.2L9.67344 17.9458C8.89058 18.7387 7.82901 19.1839 6.72227 19.1835C5.61552 19.1832 4.55426 18.7372 3.77194 17.9437C2.98963 17.1503 2.55034 16.0744 2.55073 14.9527C2.55111 13.831 2.99114 12.7554 3.774 11.9625L13.7722 1.82917L11.9674 0L1.96922 10.1333C1.33273 10.7635 0.825927 11.5153 0.478169 12.3454C0.130412 13.1754 -0.0513896 14.0672 -0.0567038 14.9689C-0.0620179 15.8707 0.109261 16.7646 0.447211 17.5988C0.785161 18.433 1.28307 19.1909 1.91208 19.8287C2.5411 20.4665 3.28873 20.9715 4.11166 21.3143C4.93459 21.6572 5.81647 21.8312 6.70622 21.8262C7.59596 21.8212 8.47588 21.6373 9.29502 21.2852C10.1142 20.9331 10.8562 20.4198 11.4782 19.775L23.0674 8.02917ZM34.6032 10.1333C33.3402 8.85757 31.6298 8.14122 29.8467 8.14122C28.0635 8.14122 26.3531 8.85757 25.0901 10.1333L13.5009 21.8792L15.3057 23.7083L26.8949 11.9625C27.4787 11.372 28.2221 10.9701 29.0311 10.8075C29.8402 10.645 30.6786 10.729 31.4405 11.0492C32.2024 11.3693 32.8537 11.9111 33.3119 12.6061C33.7702 13.3011 34.015 14.1182 34.0153 14.9542C34.0174 15.5111 33.9094 16.0627 33.6976 16.5766C33.4857 17.0904 33.1744 17.556 32.782 17.9458L22.7961 28.0792L24.605 29.9083L34.6032 19.775C35.863 18.4955 36.5705 16.7617 36.5705 14.9542C36.5705 13.1466 35.863 11.4128 34.6032 10.1333Z" fill="white"/>
</svg>
