<svg width="5" height="10" viewBox="0 0 5 10" fill="none" xmlns="http://www.w3.org/2000/svg">
<path d="M2.374 10C2.04733 9.34667 1.54333 8.73067 0.862 8.152V7.662C1.45933 7.95133 1.90733 8.222 2.206 8.474V0.312H2.794V8.474C3.09267 8.222 3.54067 7.95133 4.138 7.662V8.152C3.45667 8.73067 2.95267 9.34667 2.626 10H2.374Z" fill="white"/>
<path d="M2.374 10L1.92679 10.2236L2.06498 10.5H2.374V10ZM0.862 8.152H0.362V8.38334L0.538327 8.5331L0.862 8.152ZM0.862 7.662L1.07996 7.21201L0.362 6.86425V7.662H0.862ZM2.206 8.474L1.88356 8.85615L2.706 9.55008V8.474H2.206ZM2.206 0.312V-0.188H1.706V0.312H2.206ZM2.794 0.312H3.294V-0.188H2.794V0.312ZM2.794 8.474H2.294V9.55008L3.11644 8.85615L2.794 8.474ZM4.138 7.662H4.638V6.86425L3.92004 7.21201L4.138 7.662ZM4.138 8.152L4.46167 8.5331L4.638 8.38334V8.152H4.138ZM2.626 10V10.5H2.93502L3.07321 10.2236L2.626 10ZM2.82121 9.77639C2.45846 9.05089 1.90718 8.38369 1.18567 7.7709L0.538327 8.5331C1.17948 9.07764 1.6362 9.64244 1.92679 10.2236L2.82121 9.77639ZM1.362 8.152V7.662H0.362V8.152H1.362ZM0.644036 8.11199C1.22603 8.3939 1.63128 8.64328 1.88356 8.85615L2.52844 8.09185C2.18339 7.80072 1.69263 7.50877 1.07996 7.21201L0.644036 8.11199ZM2.706 8.474V0.312H1.706V8.474H2.706ZM2.206 0.812H2.794V-0.188H2.206V0.812ZM2.294 0.312V8.474H3.294V0.312H2.294ZM3.11644 8.85615C3.36872 8.64328 3.77397 8.3939 4.35596 8.11199L3.92004 7.21201C3.30737 7.50877 2.81661 7.80072 2.47156 8.09185L3.11644 8.85615ZM3.638 7.662V8.152H4.638V7.662H3.638ZM3.81433 7.7709C3.09282 8.38369 2.54154 9.05089 2.17879 9.77639L3.07321 10.2236C3.3638 9.64244 3.82052 9.07764 4.46167 8.5331L3.81433 7.7709ZM2.626 9.5H2.374V10.5H2.626V9.5Z" fill="white"/>
</svg>
